<mxfile host="app.diagrams.net" modified="2023-03-24T11:06:59.398Z" agent="Mozilla/5.0 (Windows NT 10.0; Win64; x64) AppleWebKit/537.36 (KHTML, like Gecko) Chrome/111.0.0.0 Safari/537.36" etag="LkzbfSqPmJlA5T6RxCCh" version="21.1.0" type="github">
  <diagram name="Page-1" id="bd83a815-5ea8-2e97-e5ec-87c9f400f2fa">
    <mxGraphModel dx="1434" dy="796" grid="1" gridSize="10" guides="0" tooltips="1" connect="0" arrows="0" fold="1" page="1" pageScale="1.5" pageWidth="1169" pageHeight="826" background="none" math="0" shadow="0">
      <root>
        <mxCell id="0" style=";html=1;" />
        <mxCell id="1" style=";html=1;" parent="0" />
        <mxCell id="1516e18e63f93b96-1" value="&lt;table border=&quot;1&quot; width=&quot;100%&quot; cellpadding=&quot;4&quot; style=&quot;width: 100% ; height: 100% ; border-collapse: collapse&quot;&gt;&lt;tbody&gt;&lt;tr style=&quot;background-color: #a7c942 ; color: #ffffff ; border: 1px solid #98bf21&quot;&gt;&lt;th&gt;&lt;font style=&quot;font-size: 18px;&quot; color=&quot;#333333&quot;&gt;Card&lt;/font&gt;&lt;/th&gt;&lt;th&gt;&lt;font size=&quot;3&quot; color=&quot;#333333&quot;&gt;Transformative&lt;/font&gt;&lt;/th&gt;&lt;th&gt;&lt;font size=&quot;3&quot; color=&quot;#333333&quot;&gt;Irreversible&lt;/font&gt;&lt;/th&gt;&lt;th&gt;&lt;font size=&quot;3&quot; color=&quot;#333333&quot;&gt;Integrative&lt;/font&gt;&lt;/th&gt;&lt;th&gt;&lt;font size=&quot;3&quot; color=&quot;#333333&quot;&gt;Troublesome&lt;/font&gt;&lt;/th&gt;&lt;th&gt;&lt;font size=&quot;3&quot; color=&quot;#333333&quot;&gt;Bounded&lt;/font&gt;&lt;/th&gt;&lt;/tr&gt;&lt;tr style=&quot;border: 1px solid #98bf21&quot;&gt;&lt;td style=&quot;background-color: #a7c942 ; color: #ffffff ; border: 1px solid #98bf21&quot;&gt;&lt;font size=&quot;3&quot; color=&quot;#333333&quot;&gt;&lt;b&gt;Class&lt;/b&gt;&lt;/font&gt;&lt;/td&gt;&lt;td&gt;&lt;/td&gt;&lt;td&gt;&lt;/td&gt;&lt;td&gt;&lt;font size=&quot;3&quot;&gt;&lt;b&gt;&lt;br&gt;&lt;/b&gt;&lt;/font&gt;&lt;/td&gt;&lt;td&gt;&lt;/td&gt;&lt;td&gt;&lt;font size=&quot;3&quot;&gt;&lt;b&gt;&lt;br&gt;&lt;/b&gt;&lt;/font&gt;&lt;/td&gt;&lt;/tr&gt;&lt;tr style=&quot;background-color: #eaf2d3 ; border: 1px solid #98bf21&quot;&gt;&lt;td style=&quot;background-color: #a7c942 ; color: #ffffff ; border: 1px solid #98bf21&quot;&gt;&lt;font size=&quot;3&quot; color=&quot;#333333&quot;&gt;&lt;b&gt;Culture&lt;/b&gt;&lt;/font&gt;&lt;/td&gt;&lt;td&gt;&lt;/td&gt;&lt;td&gt;&lt;/td&gt;&lt;td&gt;&lt;font size=&quot;3&quot;&gt;&lt;b&gt;&lt;br&gt;&lt;/b&gt;&lt;/font&gt;&lt;/td&gt;&lt;td&gt;&lt;font size=&quot;3&quot;&gt;&lt;b&gt;&lt;br&gt;&lt;/b&gt;&lt;/font&gt;&lt;/td&gt;&lt;td&gt;&lt;font size=&quot;3&quot;&gt;&lt;b&gt;&lt;br&gt;&lt;/b&gt;&lt;/font&gt;&lt;/td&gt;&lt;/tr&gt;&lt;tr style=&quot;border: 1px solid #98bf21&quot;&gt;&lt;td style=&quot;background-color: #a7c942 ; color: #ffffff ; border: 1px solid #98bf21&quot;&gt;&lt;font size=&quot;3&quot; color=&quot;#333333&quot;&gt;&lt;b&gt;Discrimination&lt;/b&gt;&lt;/font&gt;&lt;/td&gt;&lt;td&gt;&lt;/td&gt;&lt;td&gt;&lt;/td&gt;&lt;td&gt;&lt;font size=&quot;3&quot;&gt;&lt;b&gt;&lt;br&gt;&lt;/b&gt;&lt;/font&gt;&lt;/td&gt;&lt;td&gt;&lt;font size=&quot;3&quot;&gt;&lt;b&gt;&lt;br&gt;&lt;/b&gt;&lt;/font&gt;&lt;/td&gt;&lt;td&gt;&lt;font size=&quot;3&quot;&gt;&lt;b&gt;&lt;br&gt;&lt;/b&gt;&lt;/font&gt;&lt;/td&gt;&lt;/tr&gt;&lt;tr style=&quot;background-color: #eaf2d3 ; border: 1px solid #98bf21&quot;&gt;&lt;td style=&quot;background-color: #a7c942 ; color: #ffffff ; border: 1px solid #98bf21&quot;&gt;&lt;font size=&quot;3&quot; color=&quot;#333333&quot;&gt;&lt;b&gt;Ethnicity&lt;/b&gt;&lt;/font&gt;&lt;/td&gt;&lt;td&gt;&lt;/td&gt;&lt;td&gt;&lt;/td&gt;&lt;td&gt;&lt;font size=&quot;3&quot;&gt;&lt;b&gt;&lt;br&gt;&lt;/b&gt;&lt;/font&gt;&lt;/td&gt;&lt;td&gt;&lt;font size=&quot;3&quot;&gt;&lt;b&gt;&lt;br&gt;&lt;/b&gt;&lt;/font&gt;&lt;/td&gt;&lt;td&gt;&lt;font size=&quot;3&quot;&gt;&lt;b&gt;&lt;br&gt;&lt;/b&gt;&lt;/font&gt;&lt;/td&gt;&lt;/tr&gt;&lt;tr style=&quot;border: 1px solid #98bf21&quot;&gt;&lt;td style=&quot;background-color: #a7c942 ; color: #ffffff ; border: 1px solid #98bf21&quot;&gt;&lt;font size=&quot;3&quot; color=&quot;#333333&quot;&gt;&lt;b&gt;Freedom&lt;br&gt;&lt;/b&gt;&lt;/font&gt;&lt;/td&gt;&lt;td&gt;&lt;font size=&quot;3&quot;&gt;&lt;b&gt;&lt;br&gt;&lt;/b&gt;&lt;/font&gt;&lt;/td&gt;&lt;td&gt;&lt;font size=&quot;3&quot;&gt;&lt;b&gt;&lt;br&gt;&lt;/b&gt;&lt;/font&gt;&lt;/td&gt;&lt;td&gt;&lt;font size=&quot;3&quot;&gt;&lt;b&gt;&lt;br&gt;&lt;/b&gt;&lt;/font&gt;&lt;/td&gt;&lt;td&gt;&lt;font size=&quot;3&quot;&gt;&lt;b&gt;&lt;br&gt;&lt;/b&gt;&lt;/font&gt;&lt;/td&gt;&lt;td&gt;&lt;font size=&quot;3&quot;&gt;&lt;b&gt;&lt;br&gt;&lt;/b&gt;&lt;/font&gt;&lt;/td&gt;&lt;/tr&gt;&lt;tr style=&quot;background-color: #eaf2d3 ; border: 1px solid #98bf21&quot;&gt;&lt;td style=&quot;background-color: #a7c942 ; color: #ffffff ; border: 1px solid #98bf21&quot;&gt;&lt;font size=&quot;3&quot; color=&quot;#333333&quot;&gt;&lt;b&gt;Identity&lt;br&gt;&lt;/b&gt;&lt;/font&gt;&lt;/td&gt;&lt;td&gt;&lt;font size=&quot;3&quot;&gt;&lt;b&gt;&lt;br&gt;&lt;/b&gt;&lt;/font&gt;&lt;/td&gt;&lt;td&gt;&lt;font size=&quot;3&quot;&gt;&lt;b&gt;&lt;br&gt;&lt;/b&gt;&lt;/font&gt;&lt;/td&gt;&lt;td&gt;&lt;font size=&quot;3&quot;&gt;&lt;b&gt;&lt;br&gt;&lt;/b&gt;&lt;/font&gt;&lt;/td&gt;&lt;td&gt;&lt;font size=&quot;3&quot;&gt;&lt;b&gt;&lt;br&gt;&lt;/b&gt;&lt;/font&gt;&lt;/td&gt;&lt;td&gt;&lt;font size=&quot;3&quot;&gt;&lt;b&gt;&lt;br&gt;&lt;/b&gt;&lt;/font&gt;&lt;/td&gt;&lt;/tr&gt;&lt;tr style=&quot;border: 1px solid #98bf21&quot;&gt;&lt;td style=&quot;background-color: #a7c942 ; color: #ffffff ; border: 1px solid #98bf21&quot;&gt;&lt;font size=&quot;3&quot; color=&quot;#333333&quot;&gt;&lt;b&gt;Ownership&lt;br&gt;&lt;/b&gt;&lt;/font&gt;&lt;/td&gt;&lt;td&gt;&lt;font size=&quot;3&quot;&gt;&lt;b&gt;&lt;br&gt;&lt;/b&gt;&lt;/font&gt;&lt;/td&gt;&lt;td&gt;&lt;font size=&quot;3&quot;&gt;&lt;b&gt;&lt;br&gt;&lt;/b&gt;&lt;/font&gt;&lt;/td&gt;&lt;td&gt;&lt;font size=&quot;3&quot;&gt;&lt;b&gt;&lt;br&gt;&lt;/b&gt;&lt;/font&gt;&lt;/td&gt;&lt;td&gt;&lt;font size=&quot;3&quot;&gt;&lt;b&gt;&lt;br&gt;&lt;/b&gt;&lt;/font&gt;&lt;/td&gt;&lt;td&gt;&lt;font size=&quot;3&quot;&gt;&lt;b&gt;&lt;br&gt;&lt;/b&gt;&lt;/font&gt;&lt;/td&gt;&lt;/tr&gt;&lt;tr style=&quot;background-color: #eaf2d3 ; border: 1px solid #98bf21&quot;&gt;&lt;td style=&quot;background-color: #a7c942 ; color: #ffffff ; border: 1px solid #98bf21&quot;&gt;&lt;font size=&quot;3&quot; color=&quot;#333333&quot;&gt;&lt;b&gt;Power&lt;br&gt;&lt;/b&gt;&lt;/font&gt;&lt;/td&gt;&lt;td&gt;&lt;font size=&quot;3&quot;&gt;&lt;b&gt;&lt;br&gt;&lt;/b&gt;&lt;/font&gt;&lt;/td&gt;&lt;td&gt;&lt;font size=&quot;3&quot;&gt;&lt;b&gt;&lt;br&gt;&lt;/b&gt;&lt;/font&gt;&lt;/td&gt;&lt;td&gt;&lt;font size=&quot;3&quot;&gt;&lt;b&gt;&lt;br&gt;&lt;/b&gt;&lt;/font&gt;&lt;/td&gt;&lt;td&gt;&lt;font size=&quot;3&quot;&gt;&lt;b&gt;&lt;br&gt;&lt;/b&gt;&lt;/font&gt;&lt;/td&gt;&lt;td&gt;&lt;font size=&quot;3&quot;&gt;&lt;b&gt;&lt;br&gt;&lt;/b&gt;&lt;/font&gt;&lt;/td&gt;&lt;/tr&gt;&lt;tr style=&quot;border: 1px solid #98bf21&quot;&gt;&lt;td style=&quot;background-color: #a7c942 ; color: #ffffff ; border: 1px solid #98bf21&quot;&gt;&lt;font size=&quot;3&quot; color=&quot;#333333&quot;&gt;&lt;b&gt;Prejudice&lt;br&gt;&lt;/b&gt;&lt;/font&gt;&lt;/td&gt;&lt;td&gt;&lt;font size=&quot;3&quot;&gt;&lt;b&gt;&lt;br&gt;&lt;/b&gt;&lt;/font&gt;&lt;/td&gt;&lt;td&gt;&lt;font size=&quot;3&quot;&gt;&lt;b&gt;&lt;br&gt;&lt;/b&gt;&lt;/font&gt;&lt;/td&gt;&lt;td&gt;&lt;font size=&quot;3&quot;&gt;&lt;b&gt;&lt;br&gt;&lt;/b&gt;&lt;/font&gt;&lt;/td&gt;&lt;td&gt;&lt;font size=&quot;3&quot;&gt;&lt;b&gt;&lt;br&gt;&lt;/b&gt;&lt;/font&gt;&lt;/td&gt;&lt;td&gt;&lt;font size=&quot;3&quot;&gt;&lt;b&gt;&lt;br&gt;&lt;/b&gt;&lt;/font&gt;&lt;/td&gt;&lt;/tr&gt;&lt;tr style=&quot;background-color: #eaf2d3 ; border: 1px solid #98bf21&quot;&gt;&lt;td style=&quot;background-color: #a7c942 ; color: #ffffff ; border: 1px solid #98bf21&quot;&gt;&lt;font size=&quot;3&quot; color=&quot;#333333&quot;&gt;&lt;b&gt;Privilege&lt;br&gt;&lt;/b&gt;&lt;/font&gt;&lt;/td&gt;&lt;td&gt;&lt;font size=&quot;3&quot;&gt;&lt;b&gt;&lt;br&gt;&lt;/b&gt;&lt;/font&gt;&lt;/td&gt;&lt;td&gt;&lt;font size=&quot;3&quot;&gt;&lt;b&gt;&lt;br&gt;&lt;/b&gt;&lt;/font&gt;&lt;/td&gt;&lt;td&gt;&lt;font size=&quot;3&quot;&gt;&lt;b&gt;&lt;br&gt;&lt;/b&gt;&lt;/font&gt;&lt;/td&gt;&lt;td&gt;&lt;font size=&quot;3&quot;&gt;&lt;b&gt;&lt;br&gt;&lt;/b&gt;&lt;/font&gt;&lt;/td&gt;&lt;td&gt;&lt;font size=&quot;3&quot;&gt;&lt;b&gt;&lt;br&gt;&lt;/b&gt;&lt;/font&gt;&lt;/td&gt;&lt;/tr&gt;&lt;/tbody&gt;&lt;/table&gt;" style="text;html=1;strokeColor=#666666;fillColor=#f5f5f5;overflow=fill;rounded=0;shadow=1;fontSize=14;fontColor=#333333;" parent="1" vertex="1">
          <mxGeometry x="130" y="150" width="1090" height="660" as="geometry" />
        </mxCell>
        <mxCell id="1516e18e63f93b96-3" value="EDI Threshold Concepts" style="text;strokeColor=none;fillColor=none;html=1;fontSize=24;fontStyle=1;verticalAlign=middle;align=center;rounded=0;shadow=1;" parent="1" vertex="1">
          <mxGeometry x="300" y="70" width="780" height="40" as="geometry" />
        </mxCell>
        <mxCell id="1516e18e63f93b96-50" value="" style="rhombus;whiteSpace=wrap;html=1;rounded=0;shadow=0;strokeWidth=3;fillColor=#000000;fontSize=14" parent="1" vertex="1">
          <mxGeometry x="780" y="300" width="30" height="30" as="geometry" />
        </mxCell>
        <mxCell id="1516e18e63f93b96-53" value="" style="rhombus;whiteSpace=wrap;html=1;rounded=0;shadow=0;strokeWidth=3;fillColor=#000000;fontSize=14" parent="1" vertex="1">
          <mxGeometry x="620" y="470" width="30" height="30" as="geometry" />
        </mxCell>
        <mxCell id="mjmQ0NqlAM_zubkOzZmk-1" value="" style="rhombus;whiteSpace=wrap;html=1;rounded=0;shadow=0;strokeWidth=3;fillColor=#000000;fontSize=14" vertex="1" parent="1">
          <mxGeometry x="430" y="230" width="30" height="30" as="geometry" />
        </mxCell>
        <mxCell id="mjmQ0NqlAM_zubkOzZmk-2" value="" style="rhombus;whiteSpace=wrap;html=1;rounded=0;shadow=0;strokeWidth=3;fillColor=#000000;fontSize=14" vertex="1" parent="1">
          <mxGeometry x="780" y="230" width="30" height="30" as="geometry" />
        </mxCell>
        <mxCell id="mjmQ0NqlAM_zubkOzZmk-3" value="" style="rhombus;whiteSpace=wrap;html=1;rounded=0;shadow=0;strokeWidth=3;fillColor=#000000;fontSize=14" vertex="1" parent="1">
          <mxGeometry x="620" y="230" width="30" height="30" as="geometry" />
        </mxCell>
        <mxCell id="mjmQ0NqlAM_zubkOzZmk-4" value="" style="rhombus;whiteSpace=wrap;html=1;rounded=0;shadow=0;strokeWidth=3;fillColor=#000000;fontSize=14" vertex="1" parent="1">
          <mxGeometry x="1138" y="230" width="30" height="30" as="geometry" />
        </mxCell>
        <mxCell id="mjmQ0NqlAM_zubkOzZmk-5" value="" style="rhombus;whiteSpace=wrap;html=1;rounded=0;shadow=0;strokeWidth=3;fillColor=#000000;fontSize=14" vertex="1" parent="1">
          <mxGeometry x="430" y="350" width="30" height="30" as="geometry" />
        </mxCell>
        <mxCell id="mjmQ0NqlAM_zubkOzZmk-6" value="" style="rhombus;whiteSpace=wrap;html=1;rounded=0;shadow=0;strokeWidth=3;fillColor=#000000;fontSize=14" vertex="1" parent="1">
          <mxGeometry x="780" y="350" width="30" height="30" as="geometry" />
        </mxCell>
        <mxCell id="mjmQ0NqlAM_zubkOzZmk-7" value="" style="rhombus;whiteSpace=wrap;html=1;rounded=0;shadow=0;strokeWidth=3;fillColor=#000000;fontSize=14" vertex="1" parent="1">
          <mxGeometry x="430" y="410" width="30" height="30" as="geometry" />
        </mxCell>
        <mxCell id="mjmQ0NqlAM_zubkOzZmk-8" value="" style="rhombus;whiteSpace=wrap;html=1;rounded=0;shadow=0;strokeWidth=3;fillColor=#000000;fontSize=14" vertex="1" parent="1">
          <mxGeometry x="620" y="410" width="30" height="30" as="geometry" />
        </mxCell>
        <mxCell id="mjmQ0NqlAM_zubkOzZmk-9" value="" style="rhombus;whiteSpace=wrap;html=1;rounded=0;shadow=0;strokeWidth=3;fillColor=#000000;fontSize=14" vertex="1" parent="1">
          <mxGeometry x="780" y="410" width="30" height="30" as="geometry" />
        </mxCell>
        <mxCell id="mjmQ0NqlAM_zubkOzZmk-10" value="" style="rhombus;whiteSpace=wrap;html=1;rounded=0;shadow=0;strokeWidth=3;fillColor=#000000;fontSize=14" vertex="1" parent="1">
          <mxGeometry x="970" y="410" width="30" height="30" as="geometry" />
        </mxCell>
        <mxCell id="mjmQ0NqlAM_zubkOzZmk-11" value="" style="rhombus;whiteSpace=wrap;html=1;rounded=0;shadow=0;strokeWidth=3;fillColor=#000000;fontSize=14" vertex="1" parent="1">
          <mxGeometry x="1138" y="410" width="30" height="30" as="geometry" />
        </mxCell>
        <mxCell id="mjmQ0NqlAM_zubkOzZmk-13" value="" style="rhombus;whiteSpace=wrap;html=1;rounded=0;shadow=0;strokeWidth=3;fillColor=#000000;fontSize=14" vertex="1" parent="1">
          <mxGeometry x="780" y="470" width="30" height="30" as="geometry" />
        </mxCell>
        <mxCell id="mjmQ0NqlAM_zubkOzZmk-14" value="" style="rhombus;whiteSpace=wrap;html=1;rounded=0;shadow=0;strokeWidth=3;fillColor=#000000;fontSize=14" vertex="1" parent="1">
          <mxGeometry x="970" y="470" width="30" height="30" as="geometry" />
        </mxCell>
        <mxCell id="mjmQ0NqlAM_zubkOzZmk-15" value="" style="rhombus;whiteSpace=wrap;html=1;rounded=0;shadow=0;strokeWidth=3;fillColor=#000000;fontSize=14" vertex="1" parent="1">
          <mxGeometry x="430" y="470" width="30" height="30" as="geometry" />
        </mxCell>
        <mxCell id="mjmQ0NqlAM_zubkOzZmk-16" value="" style="rhombus;whiteSpace=wrap;html=1;rounded=0;shadow=0;strokeWidth=3;fillColor=#000000;fontSize=14" vertex="1" parent="1">
          <mxGeometry x="620" y="530" width="30" height="30" as="geometry" />
        </mxCell>
        <mxCell id="mjmQ0NqlAM_zubkOzZmk-17" value="" style="rhombus;whiteSpace=wrap;html=1;rounded=0;shadow=0;strokeWidth=3;fillColor=#000000;fontSize=14" vertex="1" parent="1">
          <mxGeometry x="970" y="530" width="30" height="30" as="geometry" />
        </mxCell>
        <mxCell id="mjmQ0NqlAM_zubkOzZmk-18" value="" style="rhombus;whiteSpace=wrap;html=1;rounded=0;shadow=0;strokeWidth=3;fillColor=#000000;fontSize=14" vertex="1" parent="1">
          <mxGeometry x="430" y="590" width="30" height="30" as="geometry" />
        </mxCell>
        <mxCell id="mjmQ0NqlAM_zubkOzZmk-19" value="" style="rhombus;whiteSpace=wrap;html=1;rounded=0;shadow=0;strokeWidth=3;fillColor=#000000;fontSize=14" vertex="1" parent="1">
          <mxGeometry x="970" y="590" width="30" height="30" as="geometry" />
        </mxCell>
        <mxCell id="mjmQ0NqlAM_zubkOzZmk-20" value="" style="rhombus;whiteSpace=wrap;html=1;rounded=0;shadow=0;strokeWidth=3;fillColor=#000000;fontSize=14" vertex="1" parent="1">
          <mxGeometry x="620" y="590" width="30" height="30" as="geometry" />
        </mxCell>
        <mxCell id="mjmQ0NqlAM_zubkOzZmk-21" value="" style="rhombus;whiteSpace=wrap;html=1;rounded=0;shadow=0;strokeWidth=3;fillColor=#000000;fontSize=14" vertex="1" parent="1">
          <mxGeometry x="780" y="590" width="30" height="30" as="geometry" />
        </mxCell>
        <mxCell id="mjmQ0NqlAM_zubkOzZmk-22" value="" style="rhombus;whiteSpace=wrap;html=1;rounded=0;shadow=0;strokeWidth=3;fillColor=#000000;fontSize=14" vertex="1" parent="1">
          <mxGeometry x="430" y="650" width="30" height="30" as="geometry" />
        </mxCell>
        <mxCell id="mjmQ0NqlAM_zubkOzZmk-23" value="" style="rhombus;whiteSpace=wrap;html=1;rounded=0;shadow=0;strokeWidth=3;fillColor=#000000;fontSize=14" vertex="1" parent="1">
          <mxGeometry x="620" y="650" width="30" height="30" as="geometry" />
        </mxCell>
        <mxCell id="mjmQ0NqlAM_zubkOzZmk-24" value="" style="rhombus;whiteSpace=wrap;html=1;rounded=0;shadow=0;strokeWidth=3;fillColor=#000000;fontSize=14" vertex="1" parent="1">
          <mxGeometry x="780" y="650" width="30" height="30" as="geometry" />
        </mxCell>
        <mxCell id="mjmQ0NqlAM_zubkOzZmk-25" value="" style="rhombus;whiteSpace=wrap;html=1;rounded=0;shadow=0;strokeWidth=3;fillColor=#000000;fontSize=14" vertex="1" parent="1">
          <mxGeometry x="1130" y="650" width="30" height="30" as="geometry" />
        </mxCell>
        <mxCell id="mjmQ0NqlAM_zubkOzZmk-26" value="" style="rhombus;whiteSpace=wrap;html=1;rounded=0;shadow=0;strokeWidth=3;fillColor=#000000;fontSize=14" vertex="1" parent="1">
          <mxGeometry x="620" y="710" width="30" height="30" as="geometry" />
        </mxCell>
        <mxCell id="mjmQ0NqlAM_zubkOzZmk-27" value="" style="rhombus;whiteSpace=wrap;html=1;rounded=0;shadow=0;strokeWidth=3;fillColor=#000000;fontSize=14" vertex="1" parent="1">
          <mxGeometry x="430" y="770" width="30" height="30" as="geometry" />
        </mxCell>
        <mxCell id="mjmQ0NqlAM_zubkOzZmk-28" value="" style="rhombus;whiteSpace=wrap;html=1;rounded=0;shadow=0;strokeWidth=3;fillColor=#000000;fontSize=14" vertex="1" parent="1">
          <mxGeometry x="620" y="770" width="30" height="30" as="geometry" />
        </mxCell>
        <mxCell id="mjmQ0NqlAM_zubkOzZmk-29" value="" style="rhombus;whiteSpace=wrap;html=1;rounded=0;shadow=0;strokeWidth=3;fillColor=#000000;fontSize=14" vertex="1" parent="1">
          <mxGeometry x="780" y="770" width="30" height="30" as="geometry" />
        </mxCell>
        <mxCell id="mjmQ0NqlAM_zubkOzZmk-30" value="" style="rhombus;whiteSpace=wrap;html=1;rounded=0;shadow=0;strokeWidth=3;fillColor=#000000;fontSize=14" vertex="1" parent="1">
          <mxGeometry x="970" y="770" width="30" height="30" as="geometry" />
        </mxCell>
        <mxCell id="mjmQ0NqlAM_zubkOzZmk-31" value="" style="rhombus;whiteSpace=wrap;html=1;rounded=0;shadow=0;strokeWidth=3;fillColor=#000000;fontSize=14" vertex="1" parent="1">
          <mxGeometry x="1130" y="770" width="30" height="30" as="geometry" />
        </mxCell>
      </root>
    </mxGraphModel>
  </diagram>
</mxfile>
